<?xml version="1.0" encoding="UTF-8" standalone="no"?>
<!-- Created with Inkscape (http://www.inkscape.org/) -->

<svg
   width="5000"
   height="5000"
   version="1.1"
   viewBox="0 0 1000 1000"
   id="svg23"
   xmlns="http://www.w3.org/2000/svg"
   xmlns:svg="http://www.w3.org/2000/svg"
   xmlns:rdf="http://www.w3.org/1999/02/22-rdf-syntax-ns#"
   xmlns:cc="http://creativecommons.org/ns#"
   xmlns:dc="http://purl.org/dc/elements/1.1/">
  <title
     id="title1">Docufy-Dark-icon</title>
  <defs
     id="defs4">
    <clipPath
       id="a">
      <path
         d="m 228.11,297.31 v 233.03 h 199.3 v -60.162 c -9.836,-0.1615 -18.815,-0.3118 -29.577,-0.5754 -5.3566,-0.1312 -10.713,-0.27098 -16.068,-0.4582 -5.7642,-0.20152 -12.259,-0.3864 -18.125,-1.0734 -1.0497,-0.12294 -2.0823,-0.36406 -3.1234,-0.5461 -6.3249,-1.1057 -5.059,-6.9226 0.69806,-6.7644 0.3838,0.0106 0.78774,0.0476 1.2105,0.11444 3.511,0.5549 3.3636,0.58982 8.1012,0.85976 7.9143,0.45104 20.058,0.77026 27.504,0.95236 5.7371,0.14032 10.624,0.21122 15.734,0.30586 0.0279,-0.47302 0.0445,-0.94442 0.0914,-1.4203 -2.8035,0.0362 -5.607,0.0727 -8.4105,0.1129 -1.9724,0.0284 -4.4459,1.4018 -5.9172,0.0879 -0.0364,-0.0325 -0.0574,-0.0745 -0.0918,-0.10822 -0.33668,0.0314 -0.67216,0.0757 -1.009,0.10548 0.0883,-0.58326 0.0942,-1.2076 0.0801,-1.8422 -0.4308,-1.5611 -0.29216,-3.4654 -0.68398,-5.05 0.58322,-0.0507 1.1641,-0.12598 1.7469,-0.18164 -4.4163,-0.1064 -8.8333,-0.22324 -13.248,-0.34336 -1.1735,-0.0395 -18.397,-0.51764 -21.005,-0.9371 -1.8184,-0.29246 -4.5604,-0.0453 -5.2379,-1.7578 -3.5223,-8.9034 4.8742,-9.9067 10.176,-11.562 3.4007,-1.0616 6.911,-1.7342 10.366,-2.6012 3.8731,-0.90432 7.7658,-1.7142 11.661,-2.5105 -0.54394,0.02 -1.1651,0.18888 -0.8461,0.10428 0.74198,-0.1968 1.499,-0.32538 2.2559,-0.45508 0.36782,-0.32212 0.72458,-0.6463 1.1262,-0.96212 1.0953,-0.86124 2.4449,-1.2125 3.8562,-1.4394 0.97934,-1.0826 2.766,-1.5669 4.0871,-2.3098 2.4124,-1.3565 4.928,-2.5193 7.4332,-3.6984 -2.5189,0.40878 -5.0335,0.83926 -7.5652,1.1836 -2.4644,0.33518 -4.9578,1.3363 -7.4066,0.90194 -0.74256,-0.1317 -1.4582,-0.35128 -2.1574,-0.6246 -0.7145,0.4419 -1.4722,0.98068 -1.5266,0.3996 -0.0342,-0.36546 0.17496,-0.64306 0.44766,-0.89766 -1.702,-0.79952 -3.342,-1.8019 -5.0555,-2.5637 0.60426,-0.78908 1.0758,-1.7097 1.7219,-2.4574 -0.63138,0.0862 -1.265,0.15574 -1.8961,0.24376 -17.421,2.252 -17.161,2.2029 -34.073,4.4461 -5.4407,0.7216 -9.2655,2.6092 -12.188,1.0832 -1.5755,0.98698 -2.7532,1.5484 -2.657,0.71992 0.12578,-1.0839 0.30004,-1.956 0.49178,-2.7676 -0.66316,-0.98478 -1.2786,-2.2793 -1.8527,-4.016 -0.11454,-0.34656 0.0397,-0.53718 0.34298,-0.64062 -2.7578,-0.0416 -5.5156,-0.0785 -8.2727,-0.14844 -3.8287,-0.0972 -7.6582,-0.18598 -11.484,-0.35704 -3.2145,-0.14372 -6.7178,0.76954 -9.6355,-0.58712 -2.825,-1.3135 -4.2394,-4.5664 -6.359,-6.8496 0.97002,-0.66426 1.8014,-1.602 2.9102,-1.993 4.5838,-1.6165 19.048,-3.7428 22.029,-4.2406 7.3741,-1.2318 14.749,-2.459 22.123,-3.6941 0.85074,-0.7602 2.1489,-0.75962 3.5168,-0.62968 0.36348,-0.0703 0.73596,-0.11942 1.1183,-0.14454 9.3992,-1.5827 18.794,-3.1931 28.175,-4.8797 0.20698,-0.039 0.37078,-0.0696 0.57616,-0.1082 -0.6157,-0.4447 -1.2526,-0.94834 -1.8898,-1.4398 -0.27408,0.019 -0.8405,0.0805 -1.0715,0.0937 -1.0641,0.0609 -2.2126,0.34832 -3.3453,0.57774 -4.0537,1.2452 -7.8321,1.942 -9.1207,-0.57462 -1.2975,-2.534 -0.40332,-6.4118 1.6547,-8.3789 2.5944,-2.4798 6.8393,-2.1954 10.321,-3.0672 3.9334,-0.985 9.8723,-2.1204 15.475,-3.1598 -12.564,-1.3558 -25.13,-2.7025 -37.719,-3.7711 -15.846,-1.3451 -6.014,-0.35812 -18.377,-1.2426 -1.2498,-0.0894 -2.4951,-0.23412 -3.7426,-0.35118 -6.8189,-0.6398 -5.3836,-7.1379 1.4551,-6.7637 12.198,0.66748 24.366,1.7095 36.521,2.9039 -0.31302,-1.7845 1.2616,-3.4681 4.1082,-3.409 0.68874,0.0144 1.4488,0.13048 2.2703,0.3715 0.97056,0.28478 1.3128,0.39646 2.6785,0.61914 4.753,0.77504 10.402,1.3337 15.021,1.6965 11.905,0.93486 19.843,1.2096 31.656,1.7394 v -76.142 z m 151.52,98.857 c 2.0827,-0.14518 4.9521,-0.40054 8.1406,-0.7172 -0.6691,-2.3997 -4.5204,-1.2536 -8.8281,0.18322 0.23068,0.18044 0.45802,0.35698 0.6875,0.53398 z m 8.1406,-0.7172 c 0.0735,0.26352 0.0635,0.62042 0.0566,0.97382 0.39862,-0.0741 0.80446,-0.15144 1.1992,-0.22498 -0.0357,-0.26344 -0.0966,-0.57048 -0.14844,-0.86172 -0.42974,0.0432 -0.67242,0.0697 -1.1074,0.11288 z m 0.0566,0.97382 c -2.0965,0.38996 -4.0592,0.76078 -6.3074,1.1832 1.0892,0.78666 2.111,1.4424 3.0551,1.9539 1.4767,-0.164 2.9544,-0.31862 4.4313,-0.48046 0.13026,-0.53348 0.16432,-1.2338 0.0922,-2.1176 -0.42268,0.0178 -0.8453,0.0333 -1.268,0.0512 0.0321,-0.23384 -0.007,-0.38802 -0.003,-0.59024 z m -12.607,12.098 c -5.9632,0.34832 -11.621,0.7069 -16.55,1.0637 -2.6244,0.49916 -5.3866,1.7745 -7.8777,1.4922 -0.86272,0.16492 -1.6424,0.10238 -2.2266,-0.51016 -0.0638,-0.0669 -0.10216,-0.15628 -0.15898,-0.2297 -7.0865,1.186 -14.174,2.367 -21.261,3.5508 -0.4117,0.0688 -0.82436,0.13226 -1.2363,0.19962 0.95182,0.0251 1.9032,0.0643 2.8551,0.0883 7.3784,0.18606 14.761,0.19842 22.138,0.43048 1.1143,0.0351 2.2273,0.10114 3.341,0.15352 0.40762,-0.38602 0.82584,-0.75434 1.3351,-0.96914 1.5729,-0.66338 15.009,-4.1051 15.095,-4.1274 1.5128,-0.39062 3.0325,-0.75438 4.5461,-1.1422 z m -68.877,8.2601 c -0.85434,0.016 -0.82578,0.24968 -0.75236,1.7543 0.30448,-0.52218 0.5329,-1.1332 0.75236,-1.7543 z m 32.408,4.4922 c 0.5649,0.0902 1.2166,0.2324 1.8832,0.384 0.1647,-0.11962 0.32842,-0.24046 0.50782,-0.33632 -0.7971,-0.0124 -1.5939,-0.0358 -2.391,-0.0477 z m 86.323,18.929 c -0.16902,0.0624 -0.33786,0.13974 -0.50664,0.2203 0.23244,-0.0134 0.46472,-0.0226 0.69766,-0.0355 -0.0573,-0.0659 -0.13788,-0.11608 -0.19102,-0.18476 z m -25.834,0.43828 c -0.37148,0.073 -0.74344,0.14338 -1.1148,0.2168 -1.5631,0.40866 -3.1293,0.79638 -4.7211,0.96718 -3.7085,0.75998 -7.4156,1.5278 -11.104,2.3871 -3.2594,0.80868 -6.5328,1.5629 -9.7781,2.4262 -0.19662,0.0523 -0.50986,0.18964 -0.74022,0.2711 5.9206,0.27368 13.874,0.50312 14.732,0.53202 4.5705,0.12436 9.1416,0.23926 13.712,0.35588 -1.5993,-0.68162 -2.2706,-2.3098 -1.2988,-6.5574 0.0532,-0.23234 0.17008,-0.42374 0.3125,-0.59884 z"
         fill="#ff0000"
         id="path4" />
    </clipPath>
  </defs>
  <metadata
     id="metadata4">
    <rdf:RDF>
      <cc:Work
         rdf:about="">
        <dc:title>Docufy-Dark-icon</dc:title>
        <dc:date>2024/05/10</dc:date>
        <dc:creator>
          <cc:Agent>
            <dc:title>RHR</dc:title>
          </cc:Agent>
        </dc:creator>
        <dc:rights>
          <cc:Agent>
            <dc:title>DOCUFY</dc:title>
          </cc:Agent>
        </dc:rights>
        <dc:identifier>DOCUFY</dc:identifier>
        <dc:description>The dark version logo for DOCUFY.</dc:description>
        <dc:contributor>
          <cc:Agent>
            <dc:title>_</dc:title>
          </cc:Agent>
        </dc:contributor>
      </cc:Work>
    </rdf:RDF>
  </metadata>
  <g
     transform="matrix(1.5076,0,0,1.5076,-291.18,-126.28)"
     stroke="#16161d"
     stroke-linecap="round"
     stroke-linejoin="bevel"
     id="g23"
     style="stroke:#ececf2;stroke-opacity:1">
    <rect
       transform="matrix(0.82751,0,0,0.92539,73.615,32.464)"
       x="230.39"
       y="299.59"
       width="194.75"
       height="228.48"
       clip-path="url(#a)"
       fill="none"
       stroke-width="7.0832"
       style="stroke:#f2f0eb;stroke-opacity:1;paint-order:normal"
       id="rect5" />
    <g
       transform="translate(140.94,-84.473)"
       fill-rule="evenodd"
       id="g20"
       style="stroke:#f2f0eb;stroke-opacity:1">
      <path
         d="m 147.01,426.18 h 54.901"
         stroke-width="2.2924"
         style="stroke:#f2f0eb;stroke-opacity:1;paint-order:stroke fill markers"
         id="path5" />
      <path
         d="m 210.63,426.19 h 53.607"
         stroke-width="2.4"
         style="stroke:#f2f0eb;stroke-opacity:1;paint-order:stroke fill markers"
         id="path6" />
      <path
         d="m 146.95,437.48 h 52.881"
         stroke-width="2.3517"
         style="stroke:#f2f0eb;stroke-opacity:1;paint-order:stroke fill markers"
         id="path7" />
      <path
         d="m 211.53,436.62 h 51.961"
         stroke-width="2.4"
         style="stroke:#f2f0eb;stroke-opacity:1;paint-order:stroke fill markers"
         id="path8" />
      <path
         d="m 146.97,582.27 h 51.956"
         stroke-width="2.4"
         style="stroke:#f2f0eb;stroke-opacity:1;paint-order:stroke fill markers"
         id="path9" />
      <path
         d="m 211.5,582.38 h 50.415"
         stroke-width="2.4289"
         style="stroke:#f2f0eb;stroke-opacity:1;paint-order:stroke fill markers"
         id="path10" />
      <path
         d="M 147.57,590.81 H 262.7"
         stroke-width="2.2972"
         style="stroke:#f2f0eb;stroke-opacity:1;paint-order:stroke fill markers"
         id="path11" />
      <g
         stroke-width="2.4"
         id="g18"
         style="stroke:#f2f0eb;stroke-opacity:1">
        <path
           d="m 147.64,473.34 h 29.628"
           style="stroke:#f2f0eb;stroke-opacity:1;paint-order:stroke fill markers"
           id="path12" />
        <path
           d="m 147.43,490.55 h 32.101"
           style="stroke:#f2f0eb;stroke-opacity:1;paint-order:stroke fill markers"
           id="path13" />
        <path
           d="m 148.06,505.02 h 29.806"
           style="stroke:#f2f0eb;stroke-opacity:1;paint-order:stroke fill markers"
           id="path14" />
        <path
           d="m 147.19,524.42 h 31.263"
           style="stroke:#f2f0eb;stroke-opacity:1;paint-order:stroke fill markers"
           id="path15" />
        <path
           d="m 146.53,539.82 h 33.128"
           style="stroke:#f2f0eb;stroke-opacity:1;paint-order:stroke fill markers"
           id="path16" />
        <path
           d="m 147.7,554.91 h 31.533"
           style="stroke:#f2f0eb;stroke-opacity:1;paint-order:stroke fill markers"
           id="path17" />
        <path
           d="m 147.64,457.41 h 29.628"
           style="stroke:#f2f0eb;stroke-opacity:1;paint-order:stroke fill markers"
           id="path18" />
      </g>
      <path
         d="M 147.25,574.88 H 262.27"
         stroke-width="2.2677"
         style="stroke:#f2f0eb;stroke-opacity:1;paint-order:stroke fill markers"
         id="path19" />
      <path
         d="m 158.71,412.04 h 92.088"
         stroke-width="2.4923"
         style="stroke:#f2f0eb;stroke-opacity:1;paint-order:stroke fill markers"
         id="path20" />
    </g>
    <g
       transform="translate(54.127,-84.583)"
       fill-rule="evenodd"
       id="g22"
       style="stroke:#f2f0eb;stroke-opacity:1">
      <path
         d="M 199.74,401.18 V 597.92"
         stroke-width="2.2224"
         style="stroke:#f2f0eb;stroke-opacity:1;paint-order:stroke fill markers"
         id="path21" />
      <path
         d="M 204.54,397.92 V 601.11"
         stroke-width="2.235"
         style="stroke:#f2f0eb;stroke-opacity:1;paint-order:stroke fill markers"
         id="path22" />
    </g>
    <text
       x="566.46466"
       y="463.04025"
       fill="#16161d"
       fill-rule="evenodd"
       font-family="Pacifico"
       font-size="113.64px"
       letter-spacing="0px"
       stroke-width="3.7795"
       text-align="center"
       text-anchor="middle"
       style="line-height:0;fill:#f2f0eb;fill-opacity:1;stroke:#f2f0eb;stroke-opacity:1"
       xml:space="preserve"
       id="text22"><tspan
         x="566.46466"
         y="463.04025"
         fill="#16161d"
         font-family="Serif"
         font-size="113.64px"
         letter-spacing="0px"
         stroke="#16161d"
         stroke-width="3.7795"
         style="font-variant-ligatures:normal;font-variant-caps:normal;font-variant-numeric:normal;font-variant-east-asian:normal;fill:#f2f0eb;fill-opacity:1;stroke:#f2f0eb;stroke-opacity:1"
         id="tspan22">DOCUFY</tspan></text>
  </g>
</svg>
