<svg width="512" height="46" viewBox="0 0 512 46" fill="none" xmlns="http://www.w3.org/2000/svg">
<rect y="2.18176" width="8.72727" height="8.72727" fill="#71798E"/>
<rect y="37.0909" width="8.72727" height="8.72727" fill="#71798E"/>
<rect x="8.72723" y="2.18176" width="8.72727" height="8.72727" fill="#71798E"/>
<rect x="8.72723" y="10.9091" width="8.72727" height="8.72727" fill="#71798E"/>
<rect x="8.72723" y="19.6364" width="8.72727" height="8.72727" fill="#71798E"/>
<rect x="8.72723" y="28.3636" width="8.72727" height="8.72727" fill="#71798E"/>
<rect x="8.72723" y="37.0909" width="8.72727" height="8.72727" fill="#71798E"/>
<rect x="17.4545" y="2.18176" width="8.72727" height="8.72727" fill="#71798E"/>
<rect x="17.4545" y="37.0909" width="8.72727" height="8.72727" fill="#71798E"/>
<rect x="26.1818" y="2.18176" width="8.72727" height="8.72727" fill="#71798E"/>
<rect x="26.1818" y="37.0909" width="8.72727" height="8.72727" fill="#71798E"/>
<rect x="34.9091" y="10.9091" width="8.72727" height="8.72727" fill="#71798E"/>
<rect x="34.9091" y="19.6364" width="8.72727" height="8.72727" fill="#71798E"/>
<rect x="34.9091" y="28.3636" width="8.72727" height="8.72727" fill="#71798E"/>
<rect x="52.3636" y="10.9091" width="8.72727" height="8.72727" fill="#71798E"/>
<rect x="52.3636" y="19.6364" width="8.72727" height="8.72727" fill="#71798E"/>
<rect x="52.3636" y="28.3636" width="8.72727" height="8.72727" fill="#71798E"/>
<rect x="61.0909" y="2.18176" width="8.72727" height="8.72727" fill="#71798E"/>
<rect x="61.0909" y="37.0909" width="8.72727" height="8.72727" fill="#71798E"/>
<rect x="69.8182" y="2.18176" width="8.72727" height="8.72727" fill="#71798E"/>
<rect x="69.8182" y="37.0909" width="8.72727" height="8.72727" fill="#71798E"/>
<rect x="78.5455" y="2.18176" width="8.72727" height="8.72727" fill="#71798E"/>
<rect x="78.5455" y="37.0909" width="8.72727" height="8.72727" fill="#71798E"/>
<rect x="87.2727" y="10.9091" width="8.72727" height="8.72727" fill="#71798E"/>
<rect x="87.2727" y="19.6364" width="8.72727" height="8.72727" fill="#71798E"/>
<rect x="87.2727" y="28.3636" width="8.72727" height="8.72727" fill="#71798E"/>
<rect x="468.364" y="8.72729" width="8.72727" height="8.72727" fill="#71798E"/>
<rect x="468.364" y="17.4545" width="8.72727" height="8.72727" fill="#71798E"/>
<rect x="468.364" y="26.1819" width="8.72727" height="8.72727" fill="#71798E"/>
<rect x="468.364" y="34.9091" width="8.72727" height="8.72727" fill="#71798E"/>
<rect x="477.091" y="17.4545" width="8.72727" height="8.72727" fill="#71798E"/>
<rect x="485.818" y="17.4545" width="8.72727" height="8.72727" fill="#71798E"/>
<rect x="494.545" y="17.4545" width="8.72727" height="8.72727" fill="#71798E"/>
<rect x="503.273" width="8.72727" height="8.72727" fill="#71798E"/>
<rect x="503.273" y="8.72729" width="8.72727" height="8.72727" fill="#71798E"/>
<rect x="503.273" y="17.4545" width="8.72727" height="8.72727" fill="#71798E"/>
<rect x="503.273" y="26.1819" width="8.72727" height="8.72727" fill="#71798E"/>
<rect x="503.273" y="34.9091" width="8.72727" height="8.72727" fill="#71798E"/>
<rect x="365.091" y="2.18176" width="8.72727" height="8.72727" fill="#71798E"/>
<rect x="365.091" y="19.6364" width="8.72727" height="8.72727" fill="#71798E"/>
<rect x="365.091" y="28.3636" width="8.72727" height="8.72727" fill="#71798E"/>
<rect x="365.091" y="37.0909" width="8.72727" height="8.72727" fill="#71798E"/>
<rect x="373.818" y="2.18176" width="8.72727" height="8.72727" fill="#71798E"/>
<rect x="373.818" y="19.6364" width="8.72727" height="8.72727" fill="#71798E"/>
<rect x="382.545" y="2.18176" width="8.72727" height="8.72727" fill="#71798E"/>
<rect x="382.545" y="19.6364" width="8.72727" height="8.72727" fill="#71798E"/>
<rect x="382.545" y="37.0909" width="8.72727" height="8.72727" fill="#71798E"/>
<rect x="391.273" y="2.18176" width="8.72727" height="8.72727" fill="#71798E"/>
<rect x="391.273" y="19.6364" width="8.72727" height="8.72727" fill="#71798E"/>
<rect x="391.273" y="37.0909" width="8.72727" height="8.72727" fill="#71798E"/>
<rect x="400" y="2.18176" width="8.72727" height="8.72727" fill="#71798E"/>
<rect x="400" y="37.0909" width="8.72727" height="8.72727" fill="#71798E"/>
<rect x="208" y="2.18176" width="8.72727" height="8.72727" fill="#71798E"/>
<rect x="208" y="10.9091" width="8.72727" height="8.72727" fill="#71798E"/>
<rect x="208" y="19.6364" width="8.72727" height="8.72727" fill="#71798E"/>
<rect x="208" y="28.3636" width="8.72727" height="8.72727" fill="#71798E"/>
<rect x="208" y="37.0909" width="8.72727" height="8.72727" fill="#71798E"/>
<rect x="225.455" y="2.18176" width="8.72727" height="8.72727" fill="#71798E"/>
<rect x="216.727" y="2.18176" width="8.72727" height="8.72727" fill="#71798E"/>
<rect x="225.455" y="19.6364" width="8.72727" height="8.72727" fill="#71798E"/>
<rect x="234.182" y="2.18176" width="8.72727" height="8.72727" fill="#71798E"/>
<rect x="234.182" y="19.6364" width="8.72727" height="8.72727" fill="#71798E"/>
<rect x="242.909" y="2.18176" width="8.72727" height="8.72727" fill="#71798E"/>
<rect x="155.636" y="2.18176" width="8.72727" height="8.72727" fill="#71798E"/>
<rect x="155.636" y="10.9091" width="8.72727" height="8.72727" fill="#71798E"/>
<rect x="155.636" y="19.6364" width="8.72727" height="8.72727" fill="#71798E"/>
<rect x="155.636" y="28.3636" width="8.72727" height="8.72727" fill="#71798E"/>
<rect x="164.364" y="37.0909" width="8.72727" height="8.72727" fill="#71798E"/>
<rect x="173.091" y="37.0909" width="8.72727" height="8.72727" fill="#71798E"/>
<rect x="181.818" y="37.0909" width="8.72727" height="8.72727" fill="#71798E"/>
<rect x="190.545" y="2.18176" width="8.72727" height="8.72727" fill="#71798E"/>
<rect x="190.545" y="10.9091" width="8.72727" height="8.72727" fill="#71798E"/>
<rect x="190.545" y="28.3636" width="8.72727" height="8.72727" fill="#71798E"/>
<rect x="104.727" y="10.9091" width="8.72727" height="8.72727" fill="#71798E"/>
<rect x="104.727" y="19.6364" width="8.72727" height="8.72727" fill="#71798E"/>
<rect x="104.727" y="28.3636" width="8.72727" height="8.72727" fill="#71798E"/>
<rect x="113.455" y="2.18176" width="8.72727" height="8.72727" fill="#71798E"/>
<rect x="113.455" y="37.0909" width="8.72727" height="8.72727" fill="#71798E"/>
<rect x="122.182" y="2.18176" width="8.72727" height="8.72727" fill="#71798E"/>
<rect x="122.182" y="37.0909" width="8.72727" height="8.72727" fill="#71798E"/>
<rect x="130.909" y="2.18176" width="8.72727" height="8.72727" fill="#71798E"/>
<rect x="130.909" y="37.0909" width="8.72727" height="8.72727" fill="#71798E"/>
<rect x="138.182" y="10.9091" width="8.72727" height="8.72727" fill="#71798E"/>
<rect x="138.182" y="28.3636" width="8.72727" height="8.72727" fill="#71798E"/>
<rect x="417.455" y="10.9091" width="8.72727" height="8.72727" fill="#71798E"/>
<rect x="417.455" y="19.6364" width="8.72727" height="8.72727" fill="#71798E"/>
<rect x="417.455" y="28.3636" width="8.72727" height="8.72727" fill="#71798E"/>
<rect x="426.182" y="2.18176" width="8.72727" height="8.72727" fill="#71798E"/>
<rect x="426.182" y="37.0909" width="8.72727" height="8.72727" fill="#71798E"/>
<rect x="434.909" y="2.18176" width="8.72727" height="8.72727" fill="#71798E"/>
<rect x="434.909" y="37.0909" width="8.72727" height="8.72727" fill="#71798E"/>
<rect x="443.636" y="2.18176" width="8.72727" height="8.72727" fill="#71798E"/>
<rect x="443.636" y="37.0909" width="8.72727" height="8.72727" fill="#71798E"/>
<rect x="450.909" y="10.9091" width="8.72727" height="8.72727" fill="#71798E"/>
<rect x="450.909" y="28.3636" width="8.72727" height="8.72727" fill="#71798E"/>
<rect x="312.727" y="2.18176" width="8.72727" height="8.72727" fill="#71798E"/>
<rect x="321.454" y="2.18176" width="8.72727" height="8.72727" fill="#71798E"/>
<rect x="330.182" y="2.18176" width="8.72727" height="8.72727" fill="#71798E"/>
<rect x="330.182" y="19.6364" width="8.72727" height="8.72727" fill="#71798E"/>
<rect x="330.182" y="28.3636" width="8.72727" height="8.72727" fill="#71798E"/>
<rect x="330.182" y="37.0909" width="8.72727" height="8.72727" fill="#71798E"/>
<rect x="338.909" y="2.18176" width="8.72727" height="8.72727" fill="#71798E"/>
<rect x="347.636" y="2.18176" width="8.72727" height="8.72727" fill="#71798E"/>
<rect x="260.364" y="2.18176" width="8.72727" height="8.72727" fill="#71798E"/>
<rect x="269.091" y="10.9091" width="8.72727" height="8.72727" fill="#71798E"/>
<rect x="277.818" y="19.6364" width="8.72727" height="8.72727" fill="#71798E"/>
<rect x="277.818" y="28.3636" width="8.72727" height="8.72727" fill="#71798E"/>
<rect x="277.818" y="37.0909" width="8.72727" height="8.72727" fill="#71798E"/>
<rect x="286.545" y="10.9091" width="8.72727" height="8.72727" fill="#71798E"/>
<rect x="295.273" y="2.18176" width="8.72727" height="8.72727" fill="#71798E"/>
</svg>
